<svg xmlns="http://www.w3.org/2000/svg" xmlns:xlink="http://www.w3.org/1999/xlink" width="433" zoomAndPan="magnify" viewBox="0 0 324.75 317.249999" height="423" preserveAspectRatio="xMidYMid meet" version="1.0"><defs><g/><clipPath id="id1"><path d="M 80 76 L 224 76 L 224 222.59375 L 80 222.59375 Z M 80 76 " clip-rule="nonzero"/></clipPath><clipPath id="id2"><path d="M 157 85 L 214 85 L 214 140 L 157 140 Z M 157 85 " clip-rule="nonzero"/></clipPath><clipPath id="id3"><path d="M 156.433594 115.59375 L 194.039062 84.695312 L 214.480469 109.570312 L 176.875 140.472656 Z M 156.433594 115.59375 " clip-rule="nonzero"/></clipPath><clipPath id="id4"><path d="M 156.433594 115.59375 L 194.039062 84.695312 L 214.480469 109.570312 L 176.875 140.472656 Z M 156.433594 115.59375 " clip-rule="nonzero"/></clipPath><clipPath id="id5"><path d="M 92 160 L 144 160 L 144 207 L 92 207 Z M 92 160 " clip-rule="nonzero"/></clipPath><clipPath id="id6"><path d="M 95.121094 208.519531 L 86.5625 168.234375 L 142.226562 156.40625 L 150.789062 196.691406 Z M 95.121094 208.519531 " clip-rule="nonzero"/></clipPath><clipPath id="id7"><path d="M 95.121094 208.519531 L 86.5625 168.234375 L 142.226562 156.40625 L 150.789062 196.691406 Z M 95.121094 208.519531 " clip-rule="nonzero"/></clipPath><clipPath id="id8"><path d="M 92 188 L 108 188 L 108 196 L 92 196 Z M 92 188 " clip-rule="nonzero"/></clipPath><clipPath id="id9"><path d="M 95.121094 208.519531 L 86.5625 168.234375 L 142.226562 156.40625 L 150.789062 196.691406 Z M 95.121094 208.519531 " clip-rule="nonzero"/></clipPath><clipPath id="id10"><path d="M 95.121094 208.519531 L 86.5625 168.234375 L 142.226562 156.40625 L 150.789062 196.691406 Z M 95.121094 208.519531 " clip-rule="nonzero"/></clipPath><clipPath id="id11"><path d="M 126 158 L 137 158 L 137 174 L 126 174 Z M 126 158 " clip-rule="nonzero"/></clipPath><clipPath id="id12"><path d="M 95.121094 208.519531 L 86.5625 168.234375 L 142.226562 156.40625 L 150.789062 196.691406 Z M 95.121094 208.519531 " clip-rule="nonzero"/></clipPath><clipPath id="id13"><path d="M 95.121094 208.519531 L 86.5625 168.234375 L 142.226562 156.40625 L 150.789062 196.691406 Z M 95.121094 208.519531 " clip-rule="nonzero"/></clipPath></defs><g clip-path="url(#id1)"><path fill="#000000" d="M 116.816406 222.5625 C 115.226562 222.5625 113.574219 222.457031 111.863281 222.222656 C 97.980469 220.316406 89.917969 210.953125 87.777344 208.128906 C 75.667969 192.167969 78.808594 169.335938 94.777344 157.230469 L 116.523438 140.746094 C 117.597656 139.929688 119.128906 140.140625 119.945312 141.214844 C 120.761719 142.292969 120.550781 143.824219 119.472656 144.636719 L 97.730469 161.121094 C 83.90625 171.597656 81.1875 191.363281 91.671875 205.179688 C 93.523438 207.625 100.507812 215.730469 112.527344 217.382812 C 113.96875 217.582031 115.371094 217.671875 116.714844 217.671875 C 126.542969 217.671875 133.675781 212.9375 135.820312 211.324219 L 159.515625 193.363281 C 173.339844 182.882812 176.054688 163.121094 165.574219 149.304688 C 164.101562 147.34375 162.414062 145.578125 160.558594 144.039062 C 156.429688 140.625 151.316406 138.285156 145.777344 137.265625 C 144.453125 137.023438 143.574219 135.75 143.816406 134.421875 C 144.0625 133.09375 145.335938 132.21875 146.660156 132.460938 C 153.019531 133.628906 158.902344 136.332031 163.671875 140.277344 C 165.824219 142.058594 167.777344 144.105469 169.476562 146.359375 C 181.578125 162.316406 178.4375 185.148438 162.46875 197.253906 L 138.769531 215.21875 C 135.613281 217.597656 127.707031 222.5625 116.816406 222.5625 Z M 160.472656 164.234375 C 160.71875 162.90625 159.839844 161.632812 158.511719 161.390625 C 152.972656 160.371094 147.863281 158.03125 143.734375 154.617188 C 141.875 153.078125 140.1875 151.3125 138.714844 149.351562 C 133.660156 142.6875 131.507812 134.421875 132.65625 126.074219 C 133.804688 117.726562 138.109375 110.347656 144.773438 105.292969 L 168.476562 87.328125 C 175.140625 82.277344 183.410156 80.125 191.761719 81.273438 C 200.113281 82.421875 207.496094 86.722656 212.550781 93.386719 C 214.40625 95.828125 220.332031 104.738281 218.679688 116.753906 C 217.035156 128.714844 208.984375 135.6875 206.5625 137.535156 L 184.816406 154.019531 C 183.742188 154.832031 183.53125 156.363281 184.347656 157.441406 C 185.160156 158.515625 186.695312 158.726562 187.769531 157.910156 L 209.519531 141.421875 C 212.324219 139.28125 221.621094 131.230469 223.519531 117.417969 C 225.429688 103.542969 218.585938 93.253906 216.445312 90.433594 C 210.601562 82.730469 202.070312 77.757812 192.429688 76.433594 C 182.78125 75.109375 173.230469 77.59375 165.523438 83.4375 L 141.820312 101.402344 C 134.117188 107.242188 129.140625 115.769531 127.816406 125.410156 C 126.492188 135.050781 128.976562 144.601562 134.816406 152.296875 C 136.511719 154.550781 138.464844 156.597656 140.617188 158.378906 C 145.390625 162.324219 151.273438 165.027344 157.628906 166.195312 C 157.777344 166.222656 157.925781 166.234375 158.074219 166.234375 C 159.230469 166.234375 160.257812 165.410156 160.472656 164.234375 Z M 160.472656 164.234375 " fill-opacity="1" fill-rule="nonzero"/></g><g clip-path="url(#id2)"><g clip-path="url(#id3)"><g clip-path="url(#id4)"><path fill="#004aad" d="M 193.332031 100.902344 L 187.367188 93.648438 C 186.429688 92.507812 184.726562 92.347656 183.578125 93.289062 L 158.550781 113.855469 C 157.40625 114.796875 157.234375 116.5 158.167969 117.640625 L 175.203125 138.371094 C 176.140625 139.511719 177.847656 139.675781 178.992188 138.730469 L 204.019531 118.167969 C 205.167969 117.222656 205.339844 115.519531 204.402344 114.378906 L 198.441406 107.125 L 213.597656 108.5625 L 194.859375 85.757812 Z M 193.332031 100.902344 " fill-opacity="1" fill-rule="nonzero"/></g></g></g><g clip-path="url(#id5)"><g clip-path="url(#id6)"><g clip-path="url(#id7)"><path fill="#004aad" d="M 92.933594 196.660156 C 92.933594 196.660156 95.582031 208.347656 106.246094 205.921875 C 116.910156 203.496094 125.914062 199.355469 130.441406 194.734375 C 134.96875 190.113281 146.859375 178.207031 143.296875 168.304688 C 143.296875 168.304688 141.144531 163.511719 137.855469 160.234375 L 130.707031 174.636719 C 130.707031 174.636719 133.808594 177.796875 131.191406 180.738281 C 128.578125 183.679688 115.679688 193.894531 115.679688 193.894531 C 115.679688 193.894531 111.449219 196.863281 108.496094 192.875 Z M 92.933594 196.660156 " fill-opacity="1" fill-rule="nonzero"/></g></g></g><g clip-path="url(#id8)"><g clip-path="url(#id9)"><g clip-path="url(#id10)"><path fill="#004aad" d="M 92.644531 195.289062 C 92.644531 195.289062 92.140625 194.441406 92.714844 192.570312 C 93.289062 190.699219 94.0625 190.535156 94.0625 190.535156 L 104.730469 188.109375 C 104.730469 188.109375 105.445312 188.433594 106.195312 188.910156 C 106.945312 189.390625 108.296875 191.167969 107.738281 191.605469 C 107.183594 192.042969 92.644531 195.289062 92.644531 195.289062 Z M 92.644531 195.289062 " fill-opacity="1" fill-rule="nonzero"/></g></g></g><g clip-path="url(#id11)"><g clip-path="url(#id12)"><g clip-path="url(#id13)"><path fill="#004aad" d="M 129.34375 173.855469 L 126.824219 170.847656 C 126.824219 170.847656 126.507812 170.121094 127.023438 168.738281 C 127.539062 167.355469 131.296875 159.875 131.296875 159.875 C 131.296875 159.875 132.003906 158.613281 133.152344 158.6875 C 134.300781 158.761719 136.789062 159.027344 136.789062 159.027344 Z M 129.34375 173.855469 " fill-opacity="1" fill-rule="nonzero"/></g></g></g><g fill="#004aad" fill-opacity="1"><g transform="translate(148.038943, 233.107637)"><g><path d="M 7.757812 -9.386719 L 3.109375 -5.789062 C 2.808594 -5.558594 2.542969 -5.398438 2.289062 -5.3125 C 2.074219 -5.238281 1.851562 -5.226562 1.628906 -5.308594 C 1.394531 -5.375 1.144531 -5.523438 0.902344 -5.75 C 0.621094 -5.992188 0.332031 -6.335938 0 -6.765625 L -5.457031 -13.816406 C -5.808594 -14.273438 -6.128906 -14.09375 -6.242188 -14.003906 L -7.558594 -12.988281 C -7.6875 -12.886719 -7.941406 -12.625 -7.585938 -12.164062 L -2.320312 -5.359375 C -1.699219 -4.558594 -1.097656 -3.929688 -0.535156 -3.46875 C 0.0351562 -3 0.601562 -2.679688 1.164062 -2.546875 C 1.734375 -2.394531 2.316406 -2.410156 2.898438 -2.609375 C 3.449219 -2.78125 4.058594 -3.117188 4.6875 -3.605469 L 9.40625 -7.253906 C 9.535156 -7.355469 9.761719 -7.621094 9.417969 -8.066406 L 8.542969 -9.195312 C 8.199219 -9.636719 7.886719 -9.484375 7.757812 -9.386719 Z M 7.757812 -9.386719 "/></g></g></g><g fill="#004aad" fill-opacity="1"><g transform="translate(159.691391, 224.090811)"><g><path d="M -6.257812 -13.992188 L -7.574219 -12.976562 C -7.6875 -12.886719 -7.929688 -12.609375 -7.585938 -12.164062 L 0.769531 -1.371094 C 1.109375 -0.929688 1.441406 -1.09375 1.554688 -1.179688 L 2.871094 -2.199219 C 2.984375 -2.285156 3.226562 -2.566406 2.882812 -3.007812 L -5.46875 -13.804688 C -5.8125 -14.246094 -6.144531 -14.082031 -6.257812 -13.992188 Z M -6.257812 -13.992188 "/></g></g></g><g fill="#004aad" fill-opacity="1"><g transform="translate(164.809891, 220.130045)"><g><path d="M 2.148438 -20.5 L 0.878906 -19.515625 C 0.75 -19.414062 0.511719 -19.164062 0.863281 -18.703125 L 7.515625 -10.113281 C 7.523438 -10.097656 7.523438 -10.097656 7.535156 -10.082031 L 7.464844 -10.027344 C 7.449219 -10.015625 7.4375 -10.003906 7.386719 -10.039062 L -3.347656 -14.578125 C -3.628906 -14.703125 -3.859375 -14.796875 -4.058594 -14.847656 C -4.269531 -14.914062 -4.460938 -14.949219 -4.613281 -14.945312 C -4.796875 -14.941406 -4.96875 -14.898438 -5.148438 -14.804688 C -5.300781 -14.710938 -5.484375 -14.589844 -5.671875 -14.449219 L -6.742188 -13.617188 C -7.15625 -13.296875 -7.363281 -12.910156 -7.363281 -12.5 C -7.351562 -12.070312 -7.085938 -11.523438 -6.546875 -10.820312 L 0.769531 -1.371094 C 1.109375 -0.929688 1.441406 -1.09375 1.570312 -1.191406 L 2.84375 -2.175781 C 2.96875 -2.277344 3.199219 -2.542969 2.855469 -2.988281 L -3.792969 -11.578125 C -3.804688 -11.59375 -3.816406 -11.609375 -3.816406 -11.609375 L -3.746094 -11.664062 C -3.746094 -11.664062 -3.730469 -11.675781 -3.667969 -11.652344 L 7.082031 -7.125 C 7.371094 -6.984375 7.621094 -6.902344 7.820312 -6.851562 C 8.03125 -6.785156 8.207031 -6.761719 8.378906 -6.78125 C 8.558594 -6.78125 8.71875 -6.839844 8.886719 -6.921875 C 9.035156 -6.992188 9.203125 -7.101562 9.40625 -7.253906 L 10.449219 -8.0625 C 10.863281 -8.382812 11.066406 -8.769531 11.058594 -9.195312 C 11.058594 -9.609375 10.792969 -10.15625 10.25 -10.859375 L 2.9375 -20.308594 C 2.582031 -20.765625 2.265625 -20.589844 2.148438 -20.5 Z M 2.148438 -20.5 "/></g></g></g><g fill="#004aad" fill-opacity="1"><g transform="translate(178.335308, 209.66389)"><g><path d="M 4.199219 -11.089844 C 3.546875 -11.339844 2.960938 -11.503906 2.464844 -11.554688 C 2.464844 -11.734375 2.460938 -11.914062 2.449219 -12.136719 C 2.421875 -12.410156 2.382812 -12.726562 2.335938 -13.078125 L 1.488281 -19.050781 C 1.453125 -19.183594 1.378906 -19.308594 1.265625 -19.425781 C 1.101562 -19.550781 0.921875 -19.546875 0.75 -19.414062 L -0.667969 -18.320312 C -0.824219 -18.199219 -0.902344 -18.09375 -0.914062 -17.992188 C -0.9375 -17.902344 -0.953125 -17.800781 -0.917969 -17.667969 L -0.121094 -12.179688 C -0.0976562 -11.972656 -0.09375 -11.789062 -0.0898438 -11.636719 C -0.09375 -11.496094 -0.125 -11.355469 -0.164062 -11.257812 C -0.214844 -11.148438 -0.292969 -11.042969 -0.394531 -10.941406 C -0.5 -10.835938 -0.644531 -10.699219 -0.832031 -10.558594 L -2.148438 -9.539062 L -5.457031 -13.816406 C -5.808594 -14.273438 -6.128906 -14.09375 -6.242188 -14.003906 L -7.558594 -12.988281 C -7.671875 -12.898438 -7.941406 -12.625 -7.585938 -12.164062 L 0.769531 -1.371094 C 1.109375 -0.929688 1.457031 -1.101562 1.570312 -1.191406 L 2.886719 -2.210938 C 3 -2.296875 3.242188 -2.578125 2.898438 -3.019531 L -0.507812 -7.421875 L 0.933594 -8.539062 C 1.277344 -8.804688 1.566406 -8.960938 1.816406 -8.996094 C 2.039062 -9.03125 2.34375 -8.96875 2.71875 -8.804688 L 7.980469 -6.609375 C 8.089844 -6.558594 8.203125 -6.53125 8.292969 -6.53125 C 8.394531 -6.519531 8.519531 -6.570312 8.660156 -6.679688 L 10.207031 -7.875 C 10.40625 -8.027344 10.429688 -8.230469 10.300781 -8.429688 C 10.207031 -8.582031 10.101562 -8.6875 9.988281 -8.714844 Z M 4.199219 -11.089844 "/></g></g></g><g fill="#004aad" fill-opacity="1"><g transform="translate(190.731228, 200.071756)"><g><path d="M 1.90625 -20.3125 L 0.589844 -19.292969 C 0.464844 -19.195312 0.222656 -18.941406 0.566406 -18.496094 L 6.023438 -11.449219 C 6.355469 -11.019531 6.613281 -10.625 6.78125 -10.320312 C 6.949219 -10.015625 7.027344 -9.734375 7.050781 -9.5 C 7.046875 -9.269531 6.996094 -9.070312 6.863281 -8.855469 C 6.722656 -8.652344 6.496094 -8.410156 6.199219 -8.179688 L 3.109375 -5.789062 C 2.808594 -5.558594 2.519531 -5.402344 2.289062 -5.3125 C 2.046875 -5.242188 1.839844 -5.242188 1.617188 -5.296875 C 1.394531 -5.375 1.144531 -5.523438 0.875 -5.75 C 0.621094 -5.992188 0.304688 -6.339844 -0.0273438 -6.769531 L -5.480469 -13.816406 C -5.824219 -14.261719 -6.128906 -14.09375 -6.257812 -13.992188 L -7.558594 -12.988281 C -7.6875 -12.886719 -7.941406 -12.625 -7.597656 -12.179688 L -2.320312 -5.359375 C -1.699219 -4.558594 -1.109375 -3.917969 -0.550781 -3.460938 C 0.0195312 -2.988281 0.601562 -2.679688 1.164062 -2.546875 C 1.722656 -2.382812 2.308594 -2.425781 2.882812 -2.597656 C 3.449219 -2.78125 4.046875 -3.132812 4.675781 -3.617188 L 7.890625 -6.105469 C 8.519531 -6.59375 9.007812 -7.085938 9.332031 -7.585938 C 9.65625 -8.113281 9.828125 -8.65625 9.828125 -9.25 C 9.835938 -9.828125 9.671875 -10.457031 9.355469 -11.125 C 9.054688 -11.785156 8.582031 -12.515625 7.960938 -13.316406 L 2.683594 -20.136719 C 2.339844 -20.578125 2.035156 -20.410156 1.90625 -20.3125 Z M 1.90625 -20.3125 "/></g></g></g><g fill="#004aad" fill-opacity="1"><g transform="translate(204.013588, 189.793683)"><g><path d="M -0.96875 -18.085938 L -7.574219 -12.976562 C -7.6875 -12.886719 -7.941406 -12.625 -7.585938 -12.164062 L -6.710938 -11.035156 C -6.367188 -10.59375 -6.050781 -10.773438 -5.933594 -10.859375 L 0.300781 -15.683594 C 0.65625 -15.960938 0.992188 -16.058594 1.300781 -15.957031 C 1.625 -15.863281 1.960938 -15.574219 2.324219 -15.101562 C 2.691406 -14.632812 2.882812 -14.234375 2.894531 -13.898438 C 2.917969 -13.570312 2.734375 -13.273438 2.378906 -12.996094 L -3.855469 -8.171875 C -3.96875 -8.082031 -4.222656 -7.820312 -3.878906 -7.375 L 0.769531 -1.371094 C 1.109375 -0.929688 1.441406 -1.09375 1.554688 -1.179688 L 2.871094 -2.199219 C 2.984375 -2.285156 3.226562 -2.566406 2.882812 -3.007812 L -0.5 -7.382812 L 4.375 -11.183594 C 5.347656 -11.933594 5.816406 -12.777344 5.78125 -13.707031 C 5.746094 -14.640625 5.28125 -15.652344 4.410156 -16.785156 L 4.476562 -16.699219 C 3.589844 -17.839844 2.726562 -18.542969 1.84375 -18.800781 C 0.9375 -19.082031 0.00390625 -18.839844 -0.96875 -18.085938 Z M -0.96875 -18.085938 "/></g></g></g><g fill="#004aad" fill-opacity="1"><g transform="translate(216.752642, 179.936027)"><g><path d="M 2.605469 -13.261719 L -1.683594 -9.945312 C -1.898438 -9.777344 -2.234375 -9.652344 -2.777344 -10.355469 L -3.597656 -11.414062 C -3.796875 -11.667969 -3.90625 -11.902344 -3.945312 -12.101562 C -3.957031 -12.230469 -3.949219 -12.398438 -3.703125 -12.585938 L 2.113281 -17.089844 C 2.230469 -17.175781 2.480469 -17.441406 2.140625 -17.886719 L 1.253906 -19.027344 C 0.910156 -19.472656 0.589844 -19.292969 0.476562 -19.203125 L -5.683594 -14.4375 C -6.472656 -13.828125 -6.84375 -13.128906 -6.804688 -12.3125 C -6.78125 -11.507812 -6.433594 -10.679688 -5.792969 -9.851562 L -4.953125 -8.761719 C -4.1875 -7.777344 -3.371094 -7.128906 -2.625 -6.90625 C -1.726562 -6.664062 -1.003906 -7.085938 -0.402344 -7.550781 L 3.886719 -10.871094 C 4.101562 -11.035156 4.453125 -11.171875 4.996094 -10.472656 L 5.945312 -9.242188 C 6.144531 -8.984375 6.257812 -8.75 6.28125 -8.542969 C 6.292969 -8.410156 6.285156 -8.246094 6.039062 -8.058594 L -0.0664062 -3.332031 C -0.195312 -3.234375 -0.445312 -2.96875 -0.101562 -2.527344 L 0.78125 -1.382812 C 1.125 -0.9375 1.445312 -1.117188 1.574219 -1.21875 L 8.019531 -6.207031 C 8.808594 -6.816406 9.183594 -7.539062 9.144531 -8.355469 C 9.105469 -9.148438 8.769531 -9.964844 8.128906 -10.792969 L 7.15625 -12.050781 C 6.4375 -12.980469 5.6875 -13.566406 4.917969 -13.792969 C 4.132812 -14.007812 3.351562 -13.839844 2.605469 -13.261719 Z M 2.605469 -13.261719 "/></g></g></g><g fill="#004aad" fill-opacity="1"><g transform="translate(228.919797, 170.520914)"><g><path d="M 2.605469 -13.261719 L -1.683594 -9.945312 C -1.898438 -9.777344 -2.234375 -9.652344 -2.777344 -10.355469 L -3.597656 -11.414062 C -3.796875 -11.667969 -3.90625 -11.902344 -3.945312 -12.101562 C -3.957031 -12.230469 -3.949219 -12.398438 -3.703125 -12.585938 L 2.113281 -17.089844 C 2.230469 -17.175781 2.480469 -17.441406 2.140625 -17.886719 L 1.253906 -19.027344 C 0.910156 -19.472656 0.589844 -19.292969 0.476562 -19.203125 L -5.683594 -14.4375 C -6.472656 -13.828125 -6.84375 -13.128906 -6.804688 -12.3125 C -6.78125 -11.507812 -6.433594 -10.679688 -5.792969 -9.851562 L -4.953125 -8.761719 C -4.1875 -7.777344 -3.371094 -7.128906 -2.625 -6.90625 C -1.726562 -6.664062 -1.003906 -7.085938 -0.402344 -7.550781 L 3.886719 -10.871094 C 4.101562 -11.035156 4.453125 -11.171875 4.996094 -10.472656 L 5.945312 -9.242188 C 6.144531 -8.984375 6.257812 -8.75 6.28125 -8.542969 C 6.292969 -8.410156 6.285156 -8.246094 6.039062 -8.058594 L -0.0664062 -3.332031 C -0.195312 -3.234375 -0.445312 -2.96875 -0.101562 -2.527344 L 0.78125 -1.382812 C 1.125 -0.9375 1.445312 -1.117188 1.574219 -1.21875 L 8.019531 -6.207031 C 8.808594 -6.816406 9.183594 -7.539062 9.144531 -8.355469 C 9.105469 -9.148438 8.769531 -9.964844 8.128906 -10.792969 L 7.15625 -12.050781 C 6.4375 -12.980469 5.6875 -13.566406 4.917969 -13.792969 C 4.132812 -14.007812 3.351562 -13.839844 2.605469 -13.261719 Z M 2.605469 -13.261719 "/></g></g></g></svg>