<svg xmlns="http://www.w3.org/2000/svg" xmlns:lucid="lucid" xmlnsXlink="http://www.w3.org/1999/xlink" width="1760" height="1360"><g lucid:page-tab-id="0_0"><path fill="#dedeff" stroke="#3a414a" d="M1161.2 368a8 8 0 0 1 8-8h144a8 8 0 0 1 8 8v104a8 8 0 0 1-8 8h-144a8 8 0 0 1-8-8z"/><use xlinkHref="#a" transform="translate(1201.795 412.8)"/><use xlinkHref="#b" transform="translate(1206.945 434.4)"/><path fill="#ff741d" d="M1088 541.9c17.67 0 32 17.9 32 40s-14.33 40-32 40h-96c-17.67 0-32-17.9-32-40s14.33-40 32-40z"/><use xlinkHref="#c" transform="translate(975.125 574.7)"/><use xlinkHref="#d" transform="translate(1046.975 574.7)"/><use xlinkHref="#e" transform="translate(976.575 596.3)"/><use xlinkHref="#f" transform="translate(1011.575 596.3)"/><path fill="#ff741d" d="M1488 541.9c17.67 0 32 17.9 32 40s-14.33 40-32 40h-96c-17.67 0-32-17.9-32-40s14.33-40 32-40z"/><use xlinkHref="#g" transform="translate(1374.375 574.7)"/><use xlinkHref="#h" transform="translate(1444.325 574.7)"/><use xlinkHref="#i" transform="translate(1378.575 596.3)"/><use xlinkHref="#j" transform="translate(1431.475 596.3)"/><path fill="none" stroke="#3a414a" d="M1241.2 480.95v18.23a12 12 0 0 1-12 12H1052a12 12 0 0 0-12 12v2.34"/><path fill="#3a414a" stroke="#3a414a" stroke-width=".05" d="M1241.7 480.96h-1v-.5h1z"/><path fill="#3a414a" stroke="#3a414a" d="m1040 540.28-4.64-14.26h9.28z"/><path fill="none" stroke="#3a414a" d="M1241.2 480.95v18.23a12 12 0 0 0 12 12H1428a12 12 0 0 1 12 12v2.34"/><path fill="#3a414a" stroke="#3a414a" stroke-width=".05" d="M1241.7 480.96h-1v-.5h1z"/><path fill="#3a414a" stroke="#3a414a" d="m1440 540.28-4.64-14.26h9.28z"/><path fill="#ff741d" d="M1289.2 580c17.67 0 32 17.9 32 40s-14.33 40-32 40h-96c-17.68 0-32-17.9-32-40s14.32-40 32-40z"/><use xlinkHref="#k" transform="translate(1169.745 612.8)"/><use xlinkHref="#l" transform="translate(1257.695 612.8)"/><use xlinkHref="#m" transform="translate(1196.795 634.4)"/><path fill="none" stroke="#3a414a" d="M1241.2 480.95v82.67"/><path fill="#3a414a" stroke="#3a414a" stroke-width=".05" d="M1241.7 480.96h-1v-.5h1z"/><path fill="#3a414a" stroke="#3a414a" d="m1241.2 578.38-4.64-14.26h9.27z"/><defs><path id="n" fill="#3a414a" d="M24 0v-248h52v208h133V0H24"/><path id="o" fill="#3a414a" d="M25-224v-37h50v37H25zM25 0v-190h50V0H25"/><path id="p" fill="#3a414a" d="M135-194c87-1 58 113 63 194h-50c-7-57 23-157-34-157-59 0-34 97-39 157H25l-1-190h47c2 12-1 28 3 38 12-26 28-41 61-42"/><path id="q" fill="#3a414a" d="M147 0 96-86 75-71V0H25v-261h50v150l67-79h53l-66 74L201 0h-54"/><path id="r" fill="#3a414a" d="M85 4C-2 5 27-109 22-190h50c7 57-23 150 33 157 60-5 35-97 40-157h50l1 190h-47c-2-12 1-28-3-38-12 25-28 42-61 42"/><path id="s" fill="#3a414a" d="M135-194c53 0 70 44 70 98 0 56-19 98-73 100-31 1-45-17-59-34 3 33 2 69 2 105H25l-1-265h48c2 10 0 23 3 31 11-24 29-35 60-35zM114-30c33 0 39-31 40-66 0-38-9-64-40-64-56 0-55 130 0 130"/><path id="t" fill="#3a414a" d="M137-138c1-29-70-34-71-4 15 46 118 7 119 86 1 83-164 76-172 9l43-7c4 19 20 25 44 25 33 8 57-30 24-41C81-84 22-81 20-136c-2-80 154-74 161-7"/><path id="u" fill="#3a414a" d="M275 0h-61l-44-196L126 0H64L0-248h53L97-49l45-199h58l43 199 44-199h52"/><path id="v" fill="#3a414a" d="M185-48c-13 30-37 53-82 52C43 2 14-33 14-96s30-98 90-98c62 0 83 45 84 108H66c0 31 8 55 39 56 18 0 30-7 34-22zm-45-69c5-46-57-63-70-21-2 6-4 13-4 21h74"/><path id="w" fill="#3a414a" d="M135-194c52 0 70 43 70 98 0 56-19 99-73 100-30 1-46-15-58-35L72 0H24l1-261h50v104c11-23 29-37 60-37zM114-30c31 0 40-27 40-66 0-37-7-63-39-63s-41 28-41 65c0 36 8 64 40 64"/><path id="x" fill="#3a414a" d="M115-3C79 11 28 4 28-45v-112H4v-33h27l15-45h31v45h36v33H77v99c-1 23 16 31 38 25v30"/><path id="y" fill="#3a414a" d="M233-177c-1 41-23 64-60 70L243 0h-38l-65-103H63V0H30v-248c88 3 205-21 203 71zM63-129c60-2 137 13 137-47 0-61-80-42-137-45v92"/><path id="z" fill="#3a414a" d="M100-194c63 0 86 42 84 106H49c0 40 14 67 53 68 26 1 43-12 49-29l28 8c-11 28-37 45-77 45C44 4 14-33 15-96c1-61 26-98 85-98zm52 81c6-60-76-77-97-28-3 7-6 17-6 28h103"/><path id="A" fill="#3a414a" d="M177-190C167-65 218 103 67 71c-23-6-38-20-44-43l32-5c15 47 100 32 89-28v-30C133-14 115 1 83 1 29 1 15-40 15-95c0-56 16-97 71-98 29-1 48 16 59 35 1-10 0-23 2-32h30zM94-22c36 0 50-32 50-73 0-42-14-75-50-75-39 0-46 34-46 75s6 73 46 73"/><path id="B" fill="#3a414a" d="M24-231v-30h32v30H24zM24 0v-190h32V0H24"/><path id="C" fill="#3a414a" d="M135-143c-3-34-86-38-87 0 15 53 115 12 119 90S17 21 10-45l28-5c4 36 97 45 98 0-10-56-113-15-118-90-4-57 82-63 122-42 12 7 21 19 24 35"/><path id="D" fill="#3a414a" d="M59-47c-2 24 18 29 38 22v24C64 9 27 4 27-40v-127H5v-23h24l9-43h21v43h35v23H59v120"/><path id="E" fill="#3a414a" d="M114-163C36-179 61-72 57 0H25l-1-190h30c1 12-1 29 2 39 6-27 23-49 58-41v29"/><path id="F" fill="#3a414a" d="M141-36C126-15 110 5 73 4 37 3 15-17 15-53c-1-64 63-63 125-63 3-35-9-54-41-54-24 1-41 7-42 31l-33-3c5-37 33-52 76-52 45 0 72 20 72 64v82c-1 20 7 32 28 27v20c-31 9-61-2-59-35zM48-53c0 20 12 33 32 33 41-3 63-29 60-74-43 2-92-5-92 41"/><path id="G" fill="#3a414a" d="M85-194c31 0 48 13 60 33l-1-100h32l1 261h-30c-2-10 0-23-3-31C134-8 116 4 85 4 32 4 16-35 15-94c0-66 23-100 70-100zm9 24c-40 0-46 34-46 75 0 40 6 74 45 74 42 0 51-32 51-76 0-42-9-74-50-73"/><path id="H" fill="#3a414a" d="M210-169c-67 3-38 105-44 169h-31v-121c0-29-5-50-35-48C34-165 62-65 56 0H25l-1-190h30c1 10-1 24 2 32 10-44 99-50 107 0 11-21 27-35 58-36 85-2 47 119 55 194h-31v-121c0-29-5-49-35-48"/><path id="I" fill="#3a414a" d="M117-194c89-4 53 116 60 194h-32v-121c0-31-8-49-39-48C34-167 62-67 57 0H25l-1-190h30c1 10-1 24 2 32 11-22 29-35 61-36"/><path id="J" fill="#3a414a" d="M115-194c55 1 70 41 70 98S169 2 115 4C84 4 66-9 55-30l1 105H24l-1-265h31l2 30c10-21 28-34 59-34zm-8 174c40 0 45-34 45-75s-6-73-45-74c-42 0-51 32-51 76 0 43 10 73 51 73"/><path id="K" fill="#3a414a" d="M96-169c-40 0-48 33-48 73s9 75 48 75c24 0 41-14 43-38l32 2c-6 37-31 61-74 61-59 0-76-41-82-99-10-93 101-131 147-64 4 7 5 14 7 22l-32 3c-4-21-16-35-41-35"/><path id="L" fill="#3a414a" d="m240 0 2-218c-23 76-54 145-80 218h-23L58-218 59 0H30v-248h44l77 211c21-75 51-140 76-211h43V0h-30"/><path id="M" fill="#3a414a" d="M47-170H22l-4-78h33"/><path id="N" fill="#3a414a" d="M100-194c62-1 85 37 85 99 1 63-27 99-86 99S16-35 15-95c0-66 28-99 85-99zM99-20c44 1 53-31 53-75 0-43-8-75-51-75s-53 32-53 75 10 74 51 75"/><path id="O" fill="#3a414a" d="M24 0v-261h32V0H24"/><path id="P" fill="#3a414a" d="M185-189c-5-48-123-54-124 2 14 75 158 14 163 119 3 78-121 87-175 55-17-10-28-26-33-46l33-7c5 56 141 63 141-1 0-78-155-14-162-118-5-82 145-84 179-34 5 7 8 16 11 25"/><path id="Q" fill="#3a414a" d="M106-169C34-169 62-67 57 0H25v-261h32l-1 103c12-21 28-36 61-36 89 0 53 116 60 194h-32v-121c2-32-8-49-39-48"/><path id="R" fill="#3a414a" d="M206 0h-36l-40-164L89 0H53L-1-190h32L70-26l43-164h34l41 164 42-164h31"/><path id="S" fill="#3a414a" d="M84 4C-5 8 30-112 23-190h32v120c0 31 7 50 39 49 72-2 45-101 50-169h31l1 190h-30c-1-10 1-25-2-33-11 22-28 36-60 37"/><path id="T" fill="#3a414a" d="M101-234c-31-9-42 10-38 44h38v23H63V0H32v-167H5v-23h27c-7-52 17-82 69-68v24"/><g id="a"><use xlinkHref="#n" transform="scale(.05)"/><use xlinkHref="#o" transform="translate(10.95) scale(.05)"/><use xlinkHref="#p" transform="translate(15.95) scale(.05)"/><use xlinkHref="#q" transform="translate(26.9) scale(.05)"/><use xlinkHref="#r" transform="translate(36.9) scale(.05)"/><use xlinkHref="#s" transform="translate(47.85) scale(.05)"/><use xlinkHref="#t" transform="translate(58.8) scale(.05)"/><use xlinkHref="#t" transform="translate(68.8) scale(.05)"/></g><g id="b"><use xlinkHref="#u" transform="scale(.05)"/><use xlinkHref="#v" transform="translate(16.6) scale(.05)"/><use xlinkHref="#w" transform="translate(26.6) scale(.05)"/><use xlinkHref="#t" transform="translate(37.55) scale(.05)"/><use xlinkHref="#o" transform="translate(47.55) scale(.05)"/><use xlinkHref="#x" transform="translate(52.55) scale(.05)"/><use xlinkHref="#v" transform="translate(58.5) scale(.05)"/></g><g id="c"><use xlinkHref="#y" transform="scale(.05)"/><use xlinkHref="#z" transform="translate(12.95) scale(.05)"/><use xlinkHref="#A" transform="translate(22.95) scale(.05)"/><use xlinkHref="#B" transform="translate(32.95) scale(.05)"/><use xlinkHref="#C" transform="translate(36.9) scale(.05)"/><use xlinkHref="#D" transform="translate(45.9) scale(.05)"/><use xlinkHref="#z" transform="translate(50.9) scale(.05)"/><use xlinkHref="#E" transform="translate(60.9) scale(.05)"/></g><g id="d"><use xlinkHref="#F" transform="scale(.05)"/><use xlinkHref="#G" transform="translate(10) scale(.05)"/><use xlinkHref="#H" transform="translate(20) scale(.05)"/><use xlinkHref="#B" transform="translate(34.95) scale(.05)"/><use xlinkHref="#I" transform="translate(38.9) scale(.05)"/><use xlinkHref="#C" transform="translate(48.9) scale(.05)"/></g><g id="e"><use xlinkHref="#F" transform="scale(.05)"/><use xlinkHref="#I" transform="translate(10) scale(.05)"/><use xlinkHref="#G" transform="translate(20) scale(.05)"/></g><g id="f"><use xlinkHref="#J" transform="scale(.05)"/><use xlinkHref="#F" transform="translate(10) scale(.05)"/><use xlinkHref="#E" transform="translate(20) scale(.05)"/><use xlinkHref="#D" transform="translate(25.95) scale(.05)"/><use xlinkHref="#B" transform="translate(30.95) scale(.05)"/><use xlinkHref="#K" transform="translate(34.9) scale(.05)"/><use xlinkHref="#B" transform="translate(43.9) scale(.05)"/><use xlinkHref="#J" transform="translate(47.85) scale(.05)"/><use xlinkHref="#F" transform="translate(57.85) scale(.05)"/><use xlinkHref="#I" transform="translate(67.85) scale(.05)"/><use xlinkHref="#D" transform="translate(77.85) scale(.05)"/><use xlinkHref="#C" transform="translate(82.85) scale(.05)"/></g><g id="g"><use xlinkHref="#L" transform="scale(.05)"/><use xlinkHref="#F" transform="translate(14.95) scale(.05)"/><use xlinkHref="#I" transform="translate(24.95) scale(.05)"/><use xlinkHref="#F" transform="translate(34.95) scale(.05)"/><use xlinkHref="#A" transform="translate(44.95) scale(.05)"/><use xlinkHref="#z" transform="translate(54.95) scale(.05)"/></g><g id="h"><use xlinkHref="#F" transform="scale(.05)"/><use xlinkHref="#G" transform="translate(10) scale(.05)"/><use xlinkHref="#H" transform="translate(20) scale(.05)"/><use xlinkHref="#B" transform="translate(34.95) scale(.05)"/><use xlinkHref="#I" transform="translate(38.9) scale(.05)"/><use xlinkHref="#M" transform="translate(48.9) scale(.05)"/><use xlinkHref="#C" transform="translate(52.3) scale(.05)"/></g><g id="i"><use xlinkHref="#N" transform="scale(.05)"/><use xlinkHref="#I" transform="translate(10) scale(.05)"/><use xlinkHref="#O" transform="translate(20) scale(.05)"/><use xlinkHref="#B" transform="translate(23.95) scale(.05)"/><use xlinkHref="#I" transform="translate(27.9) scale(.05)"/><use xlinkHref="#z" transform="translate(37.9) scale(.05)"/></g><g id="j"><use xlinkHref="#C" transform="scale(.05)"/><use xlinkHref="#z" transform="translate(9) scale(.05)"/><use xlinkHref="#C" transform="translate(19) scale(.05)"/><use xlinkHref="#C" transform="translate(28) scale(.05)"/><use xlinkHref="#B" transform="translate(37) scale(.05)"/><use xlinkHref="#N" transform="translate(40.95) scale(.05)"/><use xlinkHref="#I" transform="translate(50.95) scale(.05)"/><use xlinkHref="#C" transform="translate(60.95) scale(.05)"/></g><g id="k"><use xlinkHref="#P" transform="scale(.05)"/><use xlinkHref="#Q" transform="translate(12) scale(.05)"/><use xlinkHref="#N" transform="translate(22) scale(.05)"/><use xlinkHref="#R" transform="translate(32) scale(.05)"/><use xlinkHref="#K" transform="translate(44.95) scale(.05)"/><use xlinkHref="#F" transform="translate(53.95) scale(.05)"/><use xlinkHref="#C" transform="translate(63.95) scale(.05)"/><use xlinkHref="#z" transform="translate(72.95) scale(.05)"/></g><g id="l"><use xlinkHref="#C" transform="scale(.05)"/><use xlinkHref="#D" transform="translate(9) scale(.05)"/><use xlinkHref="#F" transform="translate(14) scale(.05)"/><use xlinkHref="#E" transform="translate(24) scale(.05)"/><use xlinkHref="#D" transform="translate(29.95) scale(.05)"/><use xlinkHref="#S" transform="translate(34.95) scale(.05)"/><use xlinkHref="#J" transform="translate(44.95) scale(.05)"/></g><g id="m"><use xlinkHref="#B" transform="scale(.05)"/><use xlinkHref="#I" transform="translate(3.95) scale(.05)"/><use xlinkHref="#T" transform="translate(13.95) scale(.05)"/><use xlinkHref="#N" transform="translate(18.95) scale(.05)"/><use xlinkHref="#E" transform="translate(28.95) scale(.05)"/><use xlinkHref="#H" transform="translate(34.9) scale(.05)"/><use xlinkHref="#F" transform="translate(49.85) scale(.05)"/><use xlinkHref="#D" transform="translate(59.85) scale(.05)"/><use xlinkHref="#B" transform="translate(64.85) scale(.05)"/><use xlinkHref="#N" transform="translate(68.8) scale(.05)"/><use xlinkHref="#I" transform="translate(78.8) scale(.05)"/></g></defs></g></svg>